<?xml version="1.0" standalone="no"?>
<!DOCTYPE svg PUBLIC "-//W3C//DTD SVG 20010904//EN"
 "http://www.w3.org/TR/2001/REC-SVG-20010904/DTD/svg10.dtd">
<svg version="1.0" xmlns="http://www.w3.org/2000/svg"
 width="50.000000pt" height="30.000000pt" viewBox="0 0 400.000000 372.000000"
 preserveAspectRatio="xMidYMid meet">
<g transform="translate(0.000000,372.000000) scale(0.100000,-0.100000)"
fill="#000000" stroke="none">
<path d="M1603 3701 c-3 -11 -9 -21 -14 -21 -5 0 -9 -20 -9 -45 0 -25 3 -45 8
-45 4 0 12 -10 17 -22 6 -12 19 -26 30 -32 10 -6 25 -17 33 -23 7 -7 17 -13
21 -13 13 0 109 -98 116 -119 3 -11 10 -21 15 -21 5 0 11 -13 15 -30 4 -16 10
-30 15 -30 9 0 30 -77 22 -85 -3 -3 -25 -5 -49 -5 -23 0 -43 -4 -43 -9 0 -5
-22 -11 -50 -15 -27 -4 -52 -11 -55 -16 -3 -5 -26 -12 -50 -16 -25 -3 -45 -10
-45 -14 0 -5 -13 -11 -30 -15 -16 -4 -30 -11 -30 -16 0 -5 -7 -9 -15 -9 -8 0
-15 -4 -15 -9 0 -5 -13 -12 -30 -16 -16 -4 -30 -10 -30 -15 0 -4 -11 -11 -25
-14 -14 -4 -25 -11 -25 -16 0 -6 -7 -10 -15 -10 -9 0 -18 -7 -21 -15 -4 -8
-12 -15 -19 -15 -18 0 -261 -243 -269 -268 -4 -11 -13 -23 -21 -26 -8 -3 -15
-12 -15 -21 0 -8 -4 -15 -10 -15 -5 0 -12 -11 -16 -24 -3 -14 -12 -27 -20 -30
-8 -3 -14 -12 -14 -21 0 -8 -4 -15 -9 -15 -5 0 -11 -13 -14 -30 -9 -43 -41
-70 -81 -70 -19 0 -38 5 -41 10 -8 12 -202 14 -209 1 -3 -4 -27 -11 -53 -14
-26 -3 -61 -13 -78 -21 -16 -9 -36 -16 -42 -16 -7 0 -13 -4 -13 -9 0 -5 -10
-11 -23 -15 -13 -3 -36 -17 -51 -31 -15 -14 -30 -25 -35 -25 -11 0 -131 -126
-131 -139 0 -6 -4 -11 -10 -11 -5 0 -12 -11 -16 -25 -3 -14 -10 -25 -15 -25
-5 0 -9 -7 -9 -15 0 -7 -6 -18 -13 -22 -19 -13 -77 -139 -77 -170 0 -10 -4
-23 -9 -29 -40 -42 -40 -587 0 -628 5 -6 9 -16 9 -24 0 -21 62 -162 71 -162 4
0 10 -11 13 -25 4 -14 11 -25 16 -25 6 0 10 -7 10 -15 0 -9 7 -18 15 -21 8 -4
15 -12 15 -19 0 -16 117 -135 132 -135 6 0 19 -11 30 -25 11 -14 26 -25 34
-25 8 0 14 -4 14 -9 0 -5 14 -12 30 -16 17 -4 30 -11 30 -15 0 -5 17 -12 38
-16 20 -4 40 -12 44 -18 11 -16 340 -15 345 1 4 10 8 9 19 -1 8 -8 14 -19 14
-25 0 -6 4 -11 8 -11 4 0 13 -12 20 -28 23 -50 37 -72 44 -72 5 0 8 -6 8 -14
0 -8 6 -21 13 -28 6 -7 23 -30 37 -50 14 -21 28 -38 33 -38 4 0 7 -5 7 -11 0
-12 205 -219 217 -219 5 0 16 -9 26 -20 9 -11 23 -20 31 -20 8 0 16 -7 20 -15
3 -8 12 -15 21 -15 8 0 15 -4 15 -10 0 -5 11 -12 25 -16 14 -3 25 -10 25 -14
0 -5 14 -11 30 -15 17 -4 30 -10 30 -15 0 -5 13 -11 30 -15 17 -4 30 -10 30
-15 0 -4 20 -11 45 -14 25 -4 45 -11 45 -15 0 -5 12 -11 28 -14 15 -3 52 -11
82 -17 75 -16 482 -9 488 8 2 7 17 12 33 12 16 0 29 4 29 9 0 5 20 12 45 15
25 4 45 11 45 16 0 5 14 11 30 15 17 4 30 10 30 15 0 5 14 11 30 15 17 4 30
10 30 15 0 4 11 11 25 14 14 4 25 11 25 16 0 6 6 10 13 10 8 0 22 9 32 20 10
11 24 20 32 20 7 0 13 4 13 9 0 5 10 13 21 16 12 4 38 25 58 46 20 22 68 72
106 112 39 40 77 83 85 95 8 13 23 33 33 44 9 12 17 27 17 35 0 7 4 13 9 13 5
0 13 10 17 23 4 12 9 24 13 27 8 7 28 39 43 70 7 14 19 31 26 39 12 12 15 12
23 0 11 -18 325 -21 337 -3 4 6 24 14 45 18 20 4 37 11 37 15 0 5 12 12 26 15
27 7 35 13 86 59 17 15 36 27 42 27 10 1 60 52 127 130 16 19 32 45 35 58 3
12 10 22 15 22 4 0 11 16 15 35 3 19 10 35 14 35 5 0 11 13 15 30 4 16 10 30
13 30 12 0 31 53 38 103 4 26 11 50 15 53 13 8 11 471 -1 479 -5 3 -10 17 -10
29 0 31 -31 126 -41 126 -4 0 -10 13 -14 30 -4 17 -10 30 -15 30 -5 0 -11 14
-15 30 -4 17 -10 30 -15 30 -4 0 -11 11 -14 25 -4 14 -11 25 -16 25 -6 0 -10
5 -10 11 0 7 -15 27 -32 45 -153 155 -152 154 -166 154 -7 0 -12 4 -12 10 0 5
-11 12 -25 16 -14 3 -25 10 -25 15 0 4 -16 11 -35 15 -19 3 -35 10 -35 14 0 5
-25 12 -55 15 -30 4 -55 11 -55 16 0 5 -47 9 -105 9 -58 0 -105 -4 -105 -9 0
-10 -68 -21 -87 -14 -6 3 -15 18 -18 34 -4 16 -11 29 -16 29 -5 0 -11 11 -15
25 -3 14 -10 25 -14 25 -4 0 -11 11 -14 25 -4 14 -11 25 -16 25 -6 0 -10 7
-10 15 0 9 -7 18 -15 21 -8 4 -15 12 -15 19 0 13 -14 30 -118 142 -37 40 -71
73 -75 73 -5 0 -29 20 -54 45 -24 25 -50 45 -58 45 -7 0 -15 7 -19 15 -3 8
-12 15 -21 15 -8 0 -15 4 -15 10 0 5 -11 12 -25 16 -14 3 -25 10 -25 14 0 4
-12 11 -27 15 -15 3 -30 10 -33 14 -11 14 -112 60 -148 67 -20 4 -40 11 -43
17 -4 5 -39 12 -78 15 -39 2 -71 9 -71 13 0 5 -7 9 -16 9 -14 0 -14 1 0 16 9
8 16 19 16 24 0 11 65 80 75 80 4 0 18 11 31 25 13 14 38 28 56 32 18 3 36 11
39 16 4 5 39 12 78 15 39 2 71 8 71 12 0 4 11 11 25 14 28 7 41 54 32 112 -9
55 -62 91 -119 80 -18 -4 -48 -9 -65 -13 -18 -3 -33 -9 -33 -13 0 -4 -18 -10
-40 -14 -22 -3 -40 -10 -40 -15 0 -5 -13 -12 -30 -16 -16 -4 -30 -10 -30 -15
0 -5 -9 -12 -20 -15 -26 -8 -149 -131 -159 -159 -7 -18 -11 -15 -30 26 -11 26
-21 50 -21 53 0 3 -5 11 -10 18 -39 46 -50 61 -50 68 0 12 -117 129 -129 129
-6 0 -19 10 -31 22 -16 17 -35 23 -86 26 -60 4 -66 3 -71 -17z m7 -1140 c0 -5
25 -12 55 -16 30 -3 55 -10 55 -15 0 -5 13 -11 28 -15 15 -3 34 -15 42 -25 8
-11 18 -20 23 -20 22 0 167 -130 167 -150 0 -17 30 -11 37 7 8 19 90 103 102
103 4 0 16 9 26 20 10 11 24 20 32 20 7 0 13 5 13 10 0 6 7 10 15 10 8 0 15 4
15 9 0 5 14 12 30 16 17 4 30 10 30 15 0 5 25 12 55 15 30 4 55 11 55 16 0 12
157 12 164 0 3 -5 31 -12 61 -16 30 -3 55 -10 55 -15 0 -5 14 -11 30 -15 17
-4 30 -11 30 -16 0 -5 7 -9 15 -9 8 0 15 -4 15 -9 0 -5 16 -19 36 -32 45 -27
91 -73 124 -122 14 -20 28 -37 33 -37 4 0 7 -7 7 -15 0 -9 7 -18 15 -21 8 -4
15 -14 15 -23 0 -10 7 -26 15 -37 31 -41 22 -44 -114 -44 l-130 0 -17 40 c-10
22 -21 40 -25 40 -4 0 -17 15 -28 34 -14 21 -42 44 -77 61 -47 23 -65 27 -122
23 -83 -4 -112 -25 -112 -79 0 -20 6 -41 13 -46 6 -6 57 -13 112 -17 55 -4
101 -11 103 -16 2 -5 19 -12 38 -16 104 -19 -24 -24 -661 -24 -650 0 -772 5
-660 26 19 3 37 10 40 14 3 5 44 11 93 15 48 4 99 12 115 18 23 10 27 18 27
54 0 41 -1 42 -54 67 -57 27 -100 33 -111 16 -3 -5 -17 -10 -30 -10 -13 0 -30
-6 -37 -13 -7 -7 -27 -21 -44 -32 -18 -10 -43 -35 -55 -56 -13 -21 -27 -39
-31 -39 -5 0 -8 -13 -8 -30 l0 -30 -130 0 c-83 0 -130 4 -130 10 0 11 29 61
41 70 3 3 9 15 13 28 4 12 12 22 17 22 5 0 9 7 9 15 0 9 7 18 15 21 8 3 17 15
20 25 8 26 68 86 94 94 10 3 22 12 25 20 3 8 12 15 20 15 8 0 21 9 28 19 8 11
27 23 43 27 16 4 40 13 54 20 14 8 41 14 59 14 17 0 32 5 32 10 0 6 35 10 85
10 47 0 85 -4 85 -9z m1900 -321 c0 -5 6 -10 13 -10 43 0 148 -77 161 -118 4
-12 11 -22 16 -22 5 0 11 -13 15 -30 4 -16 10 -30 15 -30 5 0 11 -13 15 -30 4
-16 10 -30 15 -30 4 0 11 -24 14 -52 4 -29 13 -56 19 -60 17 -10 17 -446 1
-456 -7 -4 -15 -33 -19 -64 -4 -32 -11 -58 -16 -58 -4 0 -11 -16 -15 -35 -3
-19 -10 -35 -15 -35 -5 0 -9 -9 -9 -20 0 -11 -6 -23 -14 -26 -8 -3 -17 -16
-20 -30 -4 -13 -11 -24 -16 -24 -6 0 -10 -6 -10 -13 0 -24 -95 -87 -132 -87
-9 0 -18 -6 -21 -12 -3 -10 -9 -10 -24 -2 -10 6 -33 15 -51 19 -18 3 -32 11
-32 16 0 5 -6 9 -14 9 -18 0 -76 57 -76 75 0 7 -7 15 -15 19 -8 3 -15 12 -15
21 0 8 -4 15 -10 15 -5 0 -10 8 -10 18 -1 9 -9 35 -20 57 -11 22 -19 43 -20
48 0 4 23 7 50 7 l50 0 0 205 c0 128 4 205 10 205 5 0 13 18 16 40 4 22 10 40
15 40 5 0 9 16 9 35 l0 34 73 3 72 3 3 143 3 142 -92 0 c-101 0 -109 9 -44 44
22 11 41 24 43 29 2 4 12 7 22 7 10 0 22 5 25 10 3 6 13 10 21 10 8 0 14 -4
14 -10z m-2920 -19 c0 -5 11 -12 25 -15 27 -7 65 -35 65 -48 0 -5 -45 -8 -100
-8 l-100 0 0 -145 0 -145 95 0 95 0 0 -280 0 -280 69 0 69 0 -10 -40 c-6 -22
-14 -40 -18 -40 -5 0 -11 -13 -15 -30 -4 -17 -11 -30 -16 -30 -5 0 -11 -11
-15 -25 -3 -14 -10 -25 -15 -25 -5 0 -13 -8 -16 -17 -9 -23 -29 -43 -43 -43
-6 0 -13 -7 -16 -15 -3 -8 -26 -17 -50 -21 -24 -3 -47 -11 -50 -16 -4 -5 -10
-5 -17 0 -7 5 -27 13 -44 17 -18 3 -33 11 -33 16 0 5 -6 9 -14 9 -18 0 -76 57
-76 75 0 7 -7 15 -15 19 -8 3 -15 12 -15 21 0 8 -4 15 -9 15 -5 0 -12 16 -15
35 -4 19 -11 35 -16 35 -5 0 -12 17 -16 38 -4 20 -11 42 -16 49 -6 7 -12 40
-15 73 -3 33 -10 63 -14 66 -12 7 -12 291 0 298 4 3 11 36 14 72 4 37 11 70
16 73 5 3 12 25 16 49 4 23 11 42 15 42 5 0 11 14 15 30 4 17 11 30 16 30 5 0
11 11 15 25 3 14 10 25 15 25 5 0 9 6 9 13 0 19 59 67 103 83 9 3 17 10 17 15
0 5 25 9 55 9 30 0 55 -4 55 -9z m495 -331 c5 -17 -10 -37 -72 -100 -43 -44
-84 -86 -91 -95 -16 -19 -32 -19 -32 -1 0 8 -2 21 -6 29 -6 18 154 186 178
187 9 0 20 -9 23 -20z m1015 -263 c0 -221 -1 -233 -20 -245 -11 -7 -20 -19
-20 -27 0 -8 -4 -15 -10 -15 -6 0 -10 -27 -10 -60 0 -33 4 -60 10 -60 6 0 10
-6 10 -13 0 -7 9 -20 19 -29 46 -39 126 -35 137 7 3 14 10 25 14 25 5 0 12 20
16 45 5 35 10 45 25 45 17 0 19 -8 19 -85 l0 -85 275 0 c253 0 315 -6 256 -25
-11 -3 -23 -15 -26 -26 -9 -26 3 -106 16 -114 11 -8 12 -205 0 -205 -5 0 -11
-18 -15 -39 -5 -36 -32 -99 -47 -111 -4 -3 -10 -16 -14 -30 -4 -13 -21 -37
-36 -53 -16 -16 -29 -33 -29 -38 0 -12 -27 -39 -70 -69 -19 -13 -37 -27 -40
-30 -9 -9 -45 -30 -62 -36 -10 -4 -18 -10 -18 -14 0 -5 -13 -11 -30 -15 -16
-4 -30 -11 -30 -15 0 -5 -16 -12 -35 -16 -19 -3 -35 -10 -35 -15 0 -4 -17 -11
-37 -14 -21 -3 -46 -10 -56 -16 -9 -5 -51 -12 -92 -16 -41 -3 -75 -10 -75 -14
0 -12 -167 -12 -174 0 -3 4 -40 11 -83 15 -42 3 -79 10 -82 15 -3 5 -30 12
-58 16 -29 4 -53 11 -53 15 0 5 -13 11 -30 15 -16 4 -30 11 -30 16 0 5 -9 9
-19 9 -11 0 -26 7 -35 15 -8 8 -19 15 -25 15 -6 0 -11 4 -11 9 0 5 -9 12 -20
16 -32 10 -150 115 -150 133 0 6 -6 15 -12 19 -17 11 -58 69 -58 83 0 5 -4 10
-10 10 -5 0 -10 9 -10 20 0 11 -4 20 -9 20 -6 0 -13 20 -17 45 -3 25 -10 45
-15 45 -5 0 -9 52 -9 115 0 63 4 115 9 115 12 0 24 74 16 100 -3 11 -17 23
-31 26 -69 17 1 24 251 24 l275 0 0 85 c0 84 0 85 25 85 20 0 25 -5 25 -25 0
-14 4 -25 9 -25 5 0 11 -14 15 -31 9 -47 33 -64 89 -64 31 0 52 5 55 13 2 6
10 12 17 12 18 0 29 57 23 124 -4 54 -17 76 -50 89 -16 6 -18 27 -18 237 l0
230 105 0 105 0 0 -233z m-908 131 c-5 -38 -18 -56 -121 -160 -117 -119 -151
-140 -151 -93 0 18 35 60 133 159 72 74 135 135 139 135 3 1 4 -18 0 -41z"/>
<path d="M2315 845 c-11 -14 -25 -25 -32 -25 -6 0 -18 -6 -25 -14 -8 -7 -25
-17 -38 -21 -14 -4 -28 -12 -31 -17 -3 -5 -25 -12 -48 -15 -22 -3 -41 -10 -41
-14 0 -5 -52 -9 -115 -9 -63 0 -115 4 -115 9 0 5 -18 11 -40 15 -22 3 -40 10
-40 15 0 5 -13 12 -30 16 -16 4 -30 11 -30 16 0 5 -7 9 -15 9 -9 0 -18 7 -21
15 -8 20 -67 30 -93 16 -33 -18 -30 -94 5 -126 15 -14 33 -25 40 -25 8 0 14
-4 14 -9 0 -12 50 -37 90 -46 16 -4 30 -10 30 -15 0 -5 32 -12 70 -16 39 -3
70 -11 70 -15 0 -5 34 -9 75 -9 41 0 75 4 75 9 0 4 32 11 72 15 40 4 75 11 78
15 3 5 18 13 33 16 15 4 27 11 27 16 0 5 6 9 13 9 8 0 24 9 37 20 13 11 26 20
29 20 3 0 19 11 34 25 21 20 27 35 27 68 0 72 -63 103 -105 52z"/>
</g>
</svg>
